<?xml version="1.0" encoding="utf-8"?>
<!-- Generator: Adobe Illustrator 17.0.0, SVG Export Plug-In . SVG Version: 6.00 Build 0)  -->
<!DOCTYPE svg PUBLIC "-//W3C//DTD SVG 1.1//EN" "http://www.w3.org/Graphics/SVG/1.1/DTD/svg11.dtd">
<svg version="1.1" id="Layer_1" xmlns="http://www.w3.org/2000/svg" xmlns:xlink="http://www.w3.org/1999/xlink" x="0px" y="0px"
	 width="294px" height="75px" viewBox="0 0 294 75" enable-background="new 0 0 294 75" xml:space="preserve">
<g>
	<defs>
		<rect id="SVGID_1_" y="0.009" width="294" height="75"/>
	</defs>
	<clipPath id="SVGID_2_">
		<use xlink:href="#SVGID_1_"  overflow="visible"/>
	</clipPath>
	<path clip-path="url(#SVGID_2_)" fill="#FFFFFF" d="M29.169,71.891c-2.481,0-3.973-0.26-6.333-1.1
		c-2.249-0.804-3.492-1.481-5.352-2.981l0.839-1.296c1.718,1.361,2.773,2.019,4.829,2.765c2.198,0.808,3.614,1.048,5.971,1.068
		c2.35-0.02,3.786-0.252,5.997-1.068c2.055-0.748,3.115-1.403,4.831-2.765l0.839,1.296c-1.863,1.499-3.105,2.175-5.351,2.981
		C33.103,71.623,31.651,71.891,29.169,71.891"/>
	<path clip-path="url(#SVGID_2_)" fill="#FFFFFF" d="M21.87,67.124l1.365,0.635c-0.187-0.151-0.195-0.328-0.047-0.649l1.074-2.285
		c-0.232-0.009-0.508-0.07-1.088-0.232l-0.082-0.027c0.025,0.019,0.041,0.035,0.053,0.047c0.171,0.13,0.194,0.254,0.086,0.502
		c0,0-0.717,1.55-0.729,1.585c-0.204,0.39-0.257,0.429-0.545,0.423C21.935,67.13,21.907,67.13,21.87,67.124"/>
	<path clip-path="url(#SVGID_2_)" fill="#FFFFFF" d="M26.29,66.807l-0.088,0.006c-0.185,0.026-0.338,0.051-0.471,0.075
		c-0.416,0.096-0.717,0.372-0.816,0.747c-0.183,0.679,0.328,1.314,1.255,1.564c0.95,0.248,1.768-0.102,1.968-0.852
		c0.048-0.177,0.061-0.356,0.024-0.531c-0.071-0.389-0.248-0.606-0.839-1.054c-0.022-0.01-0.059-0.041-0.104-0.079
		c0.628,0.012,1.058-0.226,1.172-0.655c0.134-0.507-0.287-0.997-1.044-1.2c-0.82-0.218-1.506,0.075-1.679,0.724
		c-0.085,0.317-0.012,0.645,0.192,0.879C25.99,66.587,26.038,66.632,26.29,66.807 M26.446,66.921
		c0.784,0.49,1.027,0.893,0.876,1.464c-0.134,0.497-0.534,0.767-0.98,0.643c-0.512-0.136-0.73-0.62-0.561-1.255
		C25.902,67.332,26.137,67.029,26.446,66.921 M27.088,66.573l-0.039-0.022c-0.532-0.362-0.704-0.676-0.599-1.074
		c0.106-0.387,0.406-0.576,0.76-0.484c0.383,0.107,0.569,0.488,0.459,0.911C27.575,66.239,27.358,66.492,27.088,66.573"/>
	<path clip-path="url(#SVGID_2_)" fill="#FFFFFF" d="M31.753,68.905c1.145-0.198,1.813-1.011,1.64-2.001
		c-0.172-0.986-1.11-1.519-2.28-1.316c-0.28,0.047-0.562,0.144-0.81,0.289c-0.655,0.364-0.914,0.923-0.779,1.69
		C29.702,68.589,30.592,69.112,31.753,68.905 M31.748,68.695c-0.575,0.1-1.117-0.47-1.273-1.351
		c-0.147-0.823,0.12-1.444,0.646-1.535c0.574-0.104,1.145,0.504,1.301,1.397C32.566,68.003,32.294,68.597,31.748,68.695"/>
	<path clip-path="url(#SVGID_2_)" fill="#FFFFFF" d="M35.282,67.692l1.353-0.657c-0.234,0.045-0.382-0.061-0.538-0.378l-1.101-2.273
		c-0.154,0.177-0.371,0.354-0.863,0.701l-0.073,0.047c0.032-0.006,0.053-0.014,0.069-0.008c0.211-0.053,0.324,0.008,0.448,0.242
		c0,0,0.754,1.536,0.77,1.568c0.179,0.403,0.175,0.472-0.008,0.688C35.325,67.643,35.31,67.663,35.282,67.692"/>
</g>
<polygon fill="#FFFFFF" points="36.522,39.731 46.451,39.731 45.32,41.552 37.588,41.552 "/>
<polygon fill="#FFFFFF" points="37.841,42.423 45.342,42.423 45.342,48.862 57.252,48.862 57.252,49.666 45.342,49.666 
	45.342,57.936 43.807,57.936 43.807,43.983 39.43,43.983 39.43,57.936 37.841,57.936 "/>
<g>
	<defs>
		<rect id="SVGID_3_" y="0.009" width="294" height="75"/>
	</defs>
	<clipPath id="SVGID_4_">
		<use xlink:href="#SVGID_3_"  overflow="visible"/>
	</clipPath>
	<path clip-path="url(#SVGID_4_)" fill="#FFFFFF" d="M47.156,44.767c0.808-0.415,1.32,0,1.32,0v13.169h-1.32V44.767z"/>
	<path clip-path="url(#SVGID_4_)" fill="#FFFFFF" d="M50.422,46.303c0.813-0.417,1.322,0,1.322,0v11.634h-1.322V46.303z"/>
	<path clip-path="url(#SVGID_4_)" fill="#FFFFFF" d="M53.69,47.245c0.813-0.413,1.322,0,1.322,0v10.692H53.69V47.245z"/>
	<path clip-path="url(#SVGID_4_)" fill="#FFFFFF" d="M56.96,47.947c0.811-0.417,1.32,0,1.32,0v9.99h-1.32V47.947z"/>
	<path clip-path="url(#SVGID_4_)" fill="#FFFFFF" d="M32.975,57.936H35.1l-2.587-3.398h2.94v-1.432h-3.204l0.043-10.352l2.94-3.023
		h-2.24l2.246-3.246h-2.148l1.793-2.228c0.818,0.638,1.243,1.064,1.903,1.868c0.863,1.068,1.257,1.773,1.784,3.042V35.22
		c-0.611-0.564-0.994-0.851-1.715-1.269c-1.149-0.672-1.895-0.935-3.207-1.182l-3.158,3.722h2.374l-2.15,3.241h2.017l-2.368,2.498
		l-0.02,11.992L32.975,57.936z"/>
</g>
<polygon fill="#FFFFFF" points="21.756,39.731 11.83,39.731 12.958,41.552 20.688,41.552 "/>
<polygon fill="#FFFFFF" points="20.436,42.423 12.938,42.423 12.938,48.862 1.026,48.862 1.026,49.666 12.938,49.666 12.938,57.936 
	14.474,57.936 14.474,43.983 18.851,43.983 18.851,57.936 20.436,57.936 "/>
<g>
	<defs>
		<rect id="SVGID_5_" y="0.009" width="294" height="75"/>
	</defs>
	<clipPath id="SVGID_6_">
		<use xlink:href="#SVGID_5_"  overflow="visible"/>
	</clipPath>
	<path clip-path="url(#SVGID_6_)" fill="#FFFFFF" d="M11.123,44.767c-0.811-0.415-1.32,0-1.32,0v13.169h1.32V44.767z"/>
	<path clip-path="url(#SVGID_6_)" fill="#FFFFFF" d="M7.855,46.303c-0.811-0.417-1.32,0-1.32,0v11.634h1.32V46.303z"/>
	<path clip-path="url(#SVGID_6_)" fill="#FFFFFF" d="M4.586,47.245c-0.811-0.413-1.32,0-1.32,0v10.692h1.32V47.245z"/>
	<path clip-path="url(#SVGID_6_)" fill="#FFFFFF" d="M1.318,47.947c-0.81-0.417-1.318,0-1.318,0v9.99h1.318V47.947z"/>
	<path clip-path="url(#SVGID_6_)" fill="#FFFFFF" d="M25.304,57.936h-2.126l2.588-3.398h-2.938v-1.432h3.202l-0.045-10.352
		l-2.237-3.023h2.237l-2.946-3.246h2.152l-1.793-2.228c-0.818,0.638-1.247,1.064-1.901,1.868c-0.867,1.068-1.259,1.773-1.788,3.042
		V35.22c0.613-0.561,0.996-0.848,1.717-1.269c1.149-0.672,1.895-0.932,3.207-1.182l3.155,3.722h-2.373l2.853,3.241h-2.019
		l1.669,2.498l0.02,11.992L25.304,57.936z"/>
	<path clip-path="url(#SVGID_6_)" fill="#FFFFFF" d="M31.653,30.166c1.539-0.519,2.518-0.609,4.134-0.462
		c2.025,0.186,3.219,0.661,4.873,1.844c1.036,0.736,1.57,1.266,2.307,2.302v4.655c-0.554-2.075-1.21-3.255-2.698-4.808
		c-1.444-1.507-2.557-2.172-4.528-2.868C34.218,30.293,33.269,30.157,31.653,30.166"/>
	<path clip-path="url(#SVGID_6_)" fill="#FFFFFF" d="M27.054,30.166c-1.535-0.522-2.518-0.612-4.134-0.462
		c-2.023,0.192-3.219,0.658-4.871,1.844c-1.036,0.739-1.567,1.266-2.307,2.302v4.655c0.556-2.075,1.208-3.255,2.698-4.808
		c1.446-1.504,2.555-2.172,4.524-2.868C24.49,30.296,25.438,30.157,27.054,30.166"/>
	<path clip-path="url(#SVGID_6_)" fill="#FFFFFF" d="M29.213,11.419c0.432-3.018,1.072-4.606,2.478-6.32
		c0.778-0.951,1.385-1.139,2.439-1.806l0.026-3.284C32.576,1,31.743,1.869,30.726,3.603c-0.93,1.589-1.309,3.92-1.513,5.531
		c-0.203-1.611-0.579-3.942-1.51-5.531C26.685,1.869,25.856,1,24.272,0.009l0.027,3.284c1.056,0.667,1.661,0.855,2.437,1.806
		C28.146,6.813,28.786,8.401,29.213,11.419"/>
	<path clip-path="url(#SVGID_6_)" fill="#FFFFFF" d="M29.213,16.691c0.611-1.619,1.036-2.441,1.964-3.843
		c1.345-2.033,2.291-3.125,4.23-4.604c1.663-1.26,2.763-1.887,4.698-2.551V2.038c-1.848,0.67-2.432,1.38-3.855,2.523
		c-0.579,0.461-1.756,1.577-2.832,2.919c-1.131,1.405-2.152,3.05-2.51,3.789c-0.514,1.066-1.449,2.966-1.696,4.478
		c-0.246-1.512-1.182-3.412-1.693-4.478c-0.355-0.739-1.379-2.384-2.508-3.789c-1.08-1.341-2.258-2.458-2.832-2.919
		c-1.422-1.142-2.009-1.852-3.86-2.523v3.656c1.935,0.663,3.036,1.293,4.699,2.551c1.939,1.472,2.887,2.569,4.233,4.604
		C28.183,14.251,28.604,15.072,29.213,16.691"/>
	<path clip-path="url(#SVGID_6_)" fill="#FFFFFF" d="M29.213,19.62c0.573-1.504,1.316-3.213,2.672-4.928
		c1.375-1.739,2.439-2.496,4.258-3.763c3.279-2.279,5.548-3.308,9.448-3.948v3.766c-1.767,0.078-3.203,0.219-5.163,0.764
		c-2.274,0.635-3.466,1.247-5.538,2.442c-1.675,0.967-4.036,3.661-5.677,6.491c-1.638-2.83-4.002-5.523-5.673-6.491
		c-2.074-1.194-3.266-1.806-5.541-2.442c-1.96-0.545-3.397-0.686-5.163-0.764V6.981c3.904,0.64,6.169,1.669,9.449,3.948
		c1.818,1.267,2.881,2.024,4.258,3.763C27.901,16.407,28.643,18.116,29.213,19.62"/>
	<path clip-path="url(#SVGID_6_)" fill="#FFFFFF" d="M29.209,23.368c-2.272-2.597-4.926-4.664-6.806-5.557
		c-2.534-1.205-4.47-1.614-7.429-1.536c-1.976,0.05-4.982,0.919-4.982,0.919l-0.012-4.229c2.915-0.003,4.622,0.27,7.408,1.153
		c2.907,0.916,4.568,1.644,6.992,3.488c2.203,1.672,3.219,3.125,4.833,5.191c1.619-2.067,2.633-3.519,4.835-5.197
		c2.423-1.849,4.083-2.571,6.991-3.491c2.788-0.884,4.495-1.156,7.411-1.153l-0.014,4.23c0,0-3.008-0.87-4.984-0.919
		c-2.958-0.078-4.893,0.333-7.427,1.539C34.149,18.694,31.479,20.771,29.209,23.368"/>
	<path clip-path="url(#SVGID_6_)" fill="#FFFFFF" d="M29.222,25.455c1.895-1.932,3.067-2.856,5.387-4.131
		c3.002-1.655,5.929-2.549,8.391-2.615c2.927-0.078,4.91,0.304,7.681,1.414v4.062c-2.254-1.934-3.769-2.74-6.589-3.279
		c-3.57-0.678-5.868-0.02-9.22,1.385c-2.419,1.014-3.637,1.869-5.639,3.669c-1.996-1.799-3.246-2.649-5.679-3.669
		c-3.352-1.402-5.65-2.074-9.218-1.385c-2.818,0.542-4.335,1.344-6.592,3.279l0.003-4.062c2.773-1.11,4.752-1.492,7.682-1.414
		c2.459,0.066,5.385,0.968,8.39,2.615C26.149,22.596,27.326,23.523,29.222,25.455"/>
	<path clip-path="url(#SVGID_6_)" fill="#FFFFFF" d="M29.234,29.858c1.472-1.266,2.823-2.174,4.194-2.606
		c2.708-0.849,5.565-0.145,7.179,0.331c2.144,0.632,5.349,2.32,7.56,5.104v4.351c-1.072-1.721-1.816-2.627-3.271-4.034
		c-2.051-1.982-3.33-3.256-6.055-4.097c-2.536-0.783-4.327-1.086-6.808-0.142c-1.194,0.455-2.8,1.701-2.8,1.701
		c-0.65-0.625-1.618-1.246-2.82-1.701c-2.477-0.939-4.266-0.641-6.806,0.142c-2.724,0.841-4.006,2.116-6.055,4.097
		c-1.454,1.407-2.202,2.313-3.268,4.034v-4.351c2.209-2.785,5.415-4.472,7.557-5.104c1.612-0.476,4.472-1.18,7.178-0.331
		C26.392,27.684,27.764,28.591,29.234,29.858"/>
	<path clip-path="url(#SVGID_6_)" fill="#FFFFFF" d="M29.213,27.777c1.777-1.827,2.934-2.671,5.231-3.592
		c3.922-1.574,6.84-1.362,10.841,0c2.901,0.985,4.503,2.012,6.63,4.221v5.235c-1.182-2.068-2.079-3.149-3.86-4.728
		c-2.037-1.814-3.456-2.829-6.002-3.595c-2.303-0.696-5.714-0.785-8.199,0c-1.393,0.44-3.052,1.418-4.642,2.962
		c-1.586-1.543-3.248-2.522-4.642-2.962c-2.485-0.785-5.896-0.696-8.198,0c-2.543,0.766-3.962,1.783-6.001,3.595
		c-1.779,1.579-2.677,2.661-3.857,4.728v-5.235c2.125-2.207,3.727-3.23,6.628-4.221c3.999-1.371,6.919-1.577,10.839,0
		C26.279,25.107,27.436,25.95,29.213,27.777"/>
	<path clip-path="url(#SVGID_6_)" fill="#FFFFFF" d="M29.14,75.002c2.437,0.053,4.027-0.159,6.529-0.895
		c2.151-0.635,3.433-1.113,5.285-2.403c0.66,0.698,0.806,0.936,1.545,1.432c1.031,0.685,1.326,0.876,2.453,1.312v-1.672
		c-0.864-0.403-1.325-0.708-2.067-1.298c-0.806-0.647-1.218-1.082-1.836-1.91c-2.066,1.619-3.455,2.344-5.963,3.129
		c-2.231,0.696-3.596,0.897-5.934,0.853h0.008h-0.036h0.008c-2.339,0.044-3.704-0.157-5.937-0.853
		c-2.504-0.785-3.898-1.509-5.964-3.129c-0.615,0.828-1.025,1.263-1.831,1.91c-0.746,0.59-1.204,0.895-2.067,1.298v1.672
		c1.121-0.436,1.42-0.627,2.449-1.312c0.741-0.496,0.889-0.734,1.549-1.432c1.848,1.289,3.133,1.767,5.285,2.403
		C25.118,74.843,26.703,75.055,29.14,75.002"/>
	<path clip-path="url(#SVGID_6_)" fill="#FFFFFF" d="M50.412,70.355c1.455-0.167,2.719-0.696,3.741-1.768l-2.49-4.02
		c-0.678,1.249-1.304,1.884-2.557,2.556c-1.528,0.817-3.041,1.186-5.36,0.504C45.812,70.145,47.661,70.676,50.412,70.355
		 M39.834,60.974c0.008,0.018,2.428,4.108,2.428,4.108c0.597,1.013,1.643,1.204,2.804,1.375c0.936,0.142,1.573,0.124,2.416-0.273
		l-2.999-5.149l-4.327-0.582C40.155,60.453,39.503,60.315,39.834,60.974 M14.568,67.626c-2.319,0.682-3.839,0.313-5.363-0.504
		c-1.253-0.671-1.88-1.306-2.559-2.556l-2.486,4.02c1.021,1.072,2.283,1.601,3.737,1.768C10.649,70.676,12.498,70.145,14.568,67.626
		 M18.154,60.453l-4.327,0.582l-2.999,5.149c0.847,0.397,1.481,0.415,2.416,0.273c1.162-0.171,2.207-0.362,2.804-1.375
		c0,0,2.416-4.09,2.429-4.108C18.808,60.315,18.154,60.453,18.154,60.453 M29.158,62.532c2.031,0,3.413-0.311,5.221-1.212
		c1.538-0.763,2.276-1.432,3.356-2.77l7.728,1.03l3.405,5.838c0.859-0.655,1.283-1.088,1.76-2.053
		c0.351-0.722,0.314-1.357,0.371-2.033c0.025-0.244,0.285-0.34,0.424-0.116c0.139,0.224,4.849,7.825,4.849,7.825
		c-0.998,1.135-1.724,1.599-3.113,2.206c-1.89,0.819-3.466,1.025-5.493,0.642c-2.526-0.473-3.896-1.405-5.366-3.548l-4.434-7.631
		c-1.129,1.153-1.919,1.72-3.399,2.374c-1.157,0.509-3.158,1.032-5.31,0.985c-2.158-0.049-4.156-0.476-5.318-0.985
		c-1.48-0.653-2.266-1.22-3.394-2.374l-4.435,7.631c-1.468,2.143-2.838,3.075-5.366,3.548c-2.029,0.383-3.599,0.177-5.494-0.642
		c-1.387-0.606-2.115-1.07-3.112-2.206c0,0,4.711-7.601,4.849-7.825c0.138-0.224,0.404-0.128,0.422,0.116
		c0.06,0.675,0.022,1.31,0.376,2.033c0.475,0.964,0.897,1.397,1.758,2.053l3.405-5.838l7.728-1.03
		c1.076,1.337,1.817,2.007,3.356,2.77c1.805,0.901,3.192,1.212,5.22,1.212H29.158z"/>
	<path clip-path="url(#SVGID_6_)" fill="#FFFFFF" d="M56.854,62.859h0.232c0.257-0.004,0.477-0.098,0.477-0.342
		c0-0.171-0.126-0.346-0.481-0.346c-0.101,0-0.175,0.012-0.228,0.02V62.859z M56.859,63.949h-0.315l-0.008-1.969
		c0.167-0.025,0.323-0.053,0.563-0.053c0.298,0,0.497,0.065,0.615,0.15c0.114,0.086,0.183,0.224,0.183,0.407
		c0,0.257-0.175,0.419-0.388,0.484v0.013c0.171,0.032,0.293,0.187,0.335,0.48c0.045,0.305,0.094,0.427,0.126,0.484h-0.334
		c-0.045-0.057-0.094-0.24-0.135-0.497c-0.044-0.256-0.171-0.349-0.424-0.349l-0.224,0.004L56.859,63.949z M57.184,61.431
		c-0.778,0-1.418,0.667-1.414,1.493c0.004,0.838,0.644,1.501,1.43,1.497c0.786,0.008,1.414-0.663,1.41-1.497
		c-0.004-0.834-0.632-1.497-1.422-1.493H57.184z M57.188,61.15c0.97,0,1.744,0.781,1.748,1.766c0,1-0.766,1.777-1.744,1.777
		c-0.97,0.008-1.756-0.765-1.76-1.769c-0.004-0.981,0.782-1.77,1.748-1.774H57.188z"/>
</g>
<rect x="70.336" y="0.046" fill="#FFFFFF" width="0.796" height="74.854"/>
<g>
	<defs>
		<rect id="SVGID_7_" y="0.009" width="294" height="75"/>
	</defs>
	<clipPath id="SVGID_8_">
		<use xlink:href="#SVGID_7_"  overflow="visible"/>
	</clipPath>
	<path clip-path="url(#SVGID_8_)" fill="#FFFFFF" d="M87.28,61.723c0,0.546,0.098,0.602,1.01,0.602c2.695,0,3.802-1.219,3.802-4.204
		c0-3.054-1.108-4.203-3.802-4.203c-0.912,0-1.01,0.056-1.01,0.322V61.723z M83.955,62.409c1.516-0.099,1.586-0.14,1.642-0.519
		c0.056-0.476,0.056-1.582,0.056-3.726c0-2.145,0-3.251-0.056-3.727c-0.056-0.379-0.126-0.421-1.642-0.519V53.33h4.799
		c1.964,0,2.876,0.42,3.788,1.275c0.813,0.756,1.374,1.96,1.374,3.516c0,2.453-1.543,4.876-5.374,4.876h-4.588V62.409z"/>
	<path clip-path="url(#SVGID_8_)" fill="#FFFFFF" d="M99.08,59.495c-1.866,0.252-2.736,0.574-2.736,1.513
		c0,0.714,0.575,1.288,1.347,1.288c0.519,0,1.052-0.252,1.388-0.616V59.495z M100.455,61.358c0,0.56,0.21,0.854,0.673,0.854
		c0.141,0,0.267-0.014,0.394-0.028l-0.294,0.827c-0.183,0.041-0.338,0.07-0.506,0.07c-0.533,0-1.15-0.238-1.516-0.757
		c-0.743,0.505-1.586,0.841-2.329,0.841c-1.164,0-2.048-0.785-2.048-1.835c0-1.345,0.954-2.103,4.251-2.425v-1.148
		c0-0.715-0.421-0.939-1.248-0.939c-0.997,0-1.347,0.406-1.53,1.037c-0.084,0.294-0.252,0.462-0.463,0.462
		c-0.324,0-0.885-0.406-0.885-0.714c0-0.504,1.249-1.373,3.256-1.373c1.431,0,2.245,0.504,2.245,1.611V61.358z"/>
	<path clip-path="url(#SVGID_8_)" fill="#FFFFFF" d="M101.943,62.409c0.841,0,1.01-0.112,1.038-0.364
		c0.029-0.211,0.029-0.505,0.029-0.771v-3.657c0-0.504-0.085-0.532-0.38-0.532c-0.224,0-0.477,0.028-0.687,0.084v-0.588h0.421
		c0.421,0,1.137-0.071,1.53-0.168h0.463v0.868c0,0.336,0.014,0.434,0.07,0.434c0.098,0,0.182-0.21,0.786-0.882
		c0.323-0.364,0.659-0.602,1.066-0.602c0.393,0,1.235,0.168,1.235,0.672c0,0.336-0.168,1.036-0.743,1.036
		c-0.239,0-0.408-0.112-0.548-0.434c-0.126-0.294-0.21-0.336-0.407-0.336c-0.323,0-0.969,0.658-1.431,1.695
		c0,1.106,0.028,2.69,0.07,3.026c0.042,0.379,0.126,0.42,1.207,0.519v0.588h-3.718V62.409z"/>
	<path clip-path="url(#SVGID_8_)" fill="#FFFFFF" d="M107.737,62.997v-0.588c1.165-0.098,1.249-0.14,1.291-0.519
		c0.056-0.475,0.056-1.582,0.056-3.726c0-1.919-0.014-3.503-0.056-4.33c-0.014-0.266-0.084-0.308-0.309-0.308
		c-0.225,0-0.632,0.042-0.983,0.126v-0.63c0.997-0.014,1.936-0.098,2.343-0.196h0.534c-0.127,0.7-0.155,1.526-0.155,5.338
		c0,2.144,0,3.251,0.057,3.726c0.042,0.379,0.125,0.421,1.206,0.519v0.588H107.737z"/>
	<path clip-path="url(#SVGID_8_)" fill="#FFFFFF" d="M116.366,59.495c-1.866,0.252-2.736,0.574-2.736,1.513
		c0,0.714,0.575,1.288,1.347,1.288c0.519,0,1.052-0.252,1.388-0.616V59.495z M117.741,61.358c0,0.56,0.21,0.854,0.673,0.854
		c0.141,0,0.267-0.014,0.394-0.028l-0.295,0.827c-0.183,0.041-0.338,0.07-0.506,0.07c-0.533,0-1.151-0.238-1.516-0.757
		c-0.743,0.505-1.586,0.841-2.329,0.841c-1.164,0-2.048-0.785-2.048-1.835c0-1.345,0.954-2.103,4.251-2.425v-1.148
		c0-0.715-0.421-0.939-1.248-0.939c-0.997,0-1.347,0.406-1.53,1.037c-0.084,0.294-0.252,0.462-0.463,0.462
		c-0.324,0-0.885-0.406-0.885-0.714c0-0.504,1.249-1.373,3.256-1.373c1.431,0,2.245,0.504,2.245,1.611V61.358z"/>
	<path clip-path="url(#SVGID_8_)" fill="#FFFFFF" d="M122.553,62.409c1.516-0.099,1.586-0.14,1.642-0.519
		c0.056-0.476,0.056-1.582,0.056-3.726c0-2.145,0-3.251-0.056-3.727c-0.056-0.379-0.126-0.421-1.642-0.519V53.33h3.774
		c0.014,0.098,0.042,0.266,0.084,0.406l2.568,7.216h0.028l2.764-7.622h3.718v0.588c-1.516,0.098-1.6,0.14-1.642,0.519
		c-0.056,0.476-0.056,1.582-0.056,3.727c0,2.144,0,3.25,0.056,3.726c0.042,0.379,0.126,0.42,1.642,0.519v0.588h-4.883v-0.588
		c1.459-0.099,1.558-0.168,1.558-0.504v-7.707h-0.028l-2.848,7.861c-0.084,0.224-0.168,0.448-0.239,0.714h-1.052
		c-0.014-0.14-0.07-0.364-0.154-0.588l-2.835-7.987h-0.028v6.432c0,0.434,0.07,1.05,0.098,1.26c0.056,0.379,0.127,0.42,1.488,0.519
		v0.588h-4.013V62.409z"/>
	<path clip-path="url(#SVGID_8_)" fill="#FFFFFF" d="M138.983,62.662c1.011,0,1.754-1.051,1.754-2.957
		c0-1.919-0.743-2.971-1.754-2.971s-1.754,1.051-1.754,2.971C137.229,61.611,137.973,62.662,138.983,62.662 M138.983,56.23
		c2.02,0,3.27,1.541,3.27,3.475c0,1.919-1.249,3.46-3.27,3.46s-3.27-1.54-3.27-3.46C135.714,57.772,136.963,56.23,138.983,56.23"/>
	<path clip-path="url(#SVGID_8_)" fill="#FFFFFF" d="M146.434,62.662c1.011,0,1.754-1.051,1.754-2.957
		c0-1.919-0.743-2.971-1.754-2.971c-1.011,0-1.754,1.051-1.754,2.971C144.68,61.611,145.423,62.662,146.434,62.662 M146.434,56.23
		c2.02,0,3.27,1.541,3.27,3.475c0,1.919-1.249,3.46-3.27,3.46c-2.02,0-3.27-1.54-3.27-3.46
		C143.164,57.772,144.413,56.23,146.434,56.23"/>
	<path clip-path="url(#SVGID_8_)" fill="#FFFFFF" d="M150.363,62.409c0.842,0,1.01-0.112,1.038-0.364
		c0.028-0.211,0.028-0.505,0.028-0.771v-3.657c0-0.504-0.084-0.532-0.379-0.532c-0.224,0-0.477,0.028-0.687,0.084v-0.588h0.421
		c0.422,0,1.136-0.071,1.53-0.168h0.463v0.868c0,0.336,0.014,0.434,0.07,0.434c0.098,0,0.182-0.21,0.786-0.882
		c0.323-0.364,0.659-0.602,1.066-0.602c0.393,0,1.235,0.168,1.235,0.672c0,0.336-0.168,1.036-0.743,1.036
		c-0.238,0-0.408-0.112-0.548-0.434c-0.126-0.294-0.21-0.336-0.407-0.336c-0.323,0-0.969,0.658-1.431,1.695
		c0,1.106,0.028,2.69,0.07,3.026c0.042,0.379,0.127,0.42,1.207,0.519v0.588h-3.718V62.409z"/>
	<path clip-path="url(#SVGID_8_)" fill="#FFFFFF" d="M161.685,58.934c0-1.051-0.533-2.117-1.726-2.117
		c-1.15,0-1.95,1.037-1.95,2.117H161.685z M163.145,61.708c-1.095,1.065-2.218,1.457-3.396,1.457c-1.754,0-3.256-1.177-3.256-3.181
		c0-2.144,1.474-3.755,3.438-3.755c1.361,0,3.129,0.939,3.129,3.209v0.168h-5.052v0.168c0,1.415,0.659,2.438,2.204,2.438
		c0.813,0,1.529-0.224,2.525-0.994L163.145,61.708z"/>
	<path clip-path="url(#SVGID_8_)" fill="#FFFFFF" d="M168.252,59.774c0.435,1.654,1.193,2.775,2.695,2.775
		c1.543,0,2.329-0.882,2.329-1.765c0-0.91-0.716-1.219-1.712-1.555l-1.094-0.35c-2.512-0.827-2.779-1.681-2.779-2.774
		c0-1.793,1.502-3,3.662-3c1.067,0,1.992,0.155,2.736,0.337c0,0.168-0.014,0.42-0.014,0.616c0,0.673,0.042,1.331,0.098,2.018h-0.659
		c-0.238-1.708-1.081-2.298-2.413-2.298c-1.221,0-2.148,0.742-2.148,1.639c0,0.616,0.324,1.036,1.347,1.387l2.33,0.812
		c1.501,0.533,2.091,1.275,2.091,2.606c0,1.864-1.544,3-3.816,3c-1.039,0-2.106-0.421-3.101-0.421
		c-0.014-0.714-0.112-1.975-0.224-2.901L168.252,59.774z"/>
	<path clip-path="url(#SVGID_8_)" fill="#FFFFFF" d="M181.581,61.89c-0.912,0.798-1.852,1.275-3.031,1.275
		c-1.796,0-3.044-1.387-3.044-3.237c0-2.032,1.333-3.699,3.34-3.699c1.151,0,2.497,0.448,2.497,0.869
		c0,0.336-0.407,1.106-0.87,1.106c-0.898,0-0.575-1.471-1.627-1.471c-0.969,0-1.824,1.121-1.824,2.775
		c0,1.568,0.883,2.704,2.034,2.704c0.701,0,1.403-0.322,2.105-0.798L181.581,61.89z"/>
	<path clip-path="url(#SVGID_8_)" fill="#FFFFFF" d="M181.988,62.409c0.842,0,1.01-0.112,1.038-0.364
		c0.028-0.211,0.028-0.505,0.028-0.771v-3.545c0-2.102-0.013-3.265-0.028-3.517c-0.028-0.49-0.098-0.686-0.323-0.686
		s-0.547,0.056-0.715,0.126v-0.63h0.294c0.786,0,1.459-0.113,1.796-0.196h0.421c-0.056,0.434-0.07,0.882-0.07,1.218v2.663v0.294
		c0,0.21,0.028,0.308,0.098,0.308c0.224,0,0.969-1.078,2.26-1.078c1.346,0,1.95,0.77,1.95,1.82v3.223c0,0.266,0,0.56,0.028,0.771
		c0.028,0.252,0.196,0.364,1.038,0.364v0.588h-3.424v-0.588c0.757,0,0.927-0.112,0.955-0.364c0.028-0.211,0.028-0.505,0.028-0.771
		v-3.573c-0.225-0.378-0.603-0.602-1.067-0.602c-0.687,0-1.375,0.518-1.866,1.289v2.886c0,0.266,0,0.56,0.028,0.771
		c0.028,0.252,0.196,0.364,0.955,0.364v0.588h-3.424V62.409z"/>
	<path clip-path="url(#SVGID_8_)" fill="#FFFFFF" d="M193.662,62.662c1.01,0,1.754-1.051,1.754-2.957
		c0-1.919-0.744-2.971-1.754-2.971c-1.01,0-1.754,1.051-1.754,2.971C191.908,61.611,192.652,62.662,193.662,62.662 M193.662,56.23
		c2.02,0,3.27,1.541,3.27,3.475c0,1.919-1.249,3.46-3.27,3.46c-2.02,0-3.27-1.54-3.27-3.46
		C190.392,57.772,191.641,56.23,193.662,56.23"/>
	<path clip-path="url(#SVGID_8_)" fill="#FFFFFF" d="M201.112,62.662c1.01,0,1.754-1.051,1.754-2.957
		c0-1.919-0.744-2.971-1.754-2.971s-1.754,1.051-1.754,2.971C199.358,61.611,200.102,62.662,201.112,62.662 M201.112,56.23
		c2.02,0,3.27,1.541,3.27,3.475c0,1.919-1.249,3.46-3.27,3.46c-2.02,0-3.27-1.54-3.27-3.46
		C197.842,57.772,199.091,56.23,201.112,56.23"/>
	<path clip-path="url(#SVGID_8_)" fill="#FFFFFF" d="M204.956,62.997v-0.588c1.165-0.098,1.249-0.14,1.291-0.519
		c0.056-0.475,0.056-1.582,0.056-3.726c0-1.919-0.014-3.503-0.056-4.33c-0.014-0.266-0.084-0.308-0.309-0.308
		s-0.632,0.042-0.983,0.126v-0.63c0.997-0.014,1.936-0.098,2.344-0.196h0.533c-0.126,0.7-0.154,1.526-0.154,5.338
		c0,2.144,0,3.251,0.056,3.726c0.042,0.379,0.126,0.421,1.207,0.519v0.588H204.956z"/>
	<path clip-path="url(#SVGID_8_)" fill="#FFFFFF" d="M215.718,62.662c1.01,0,1.754-1.051,1.754-2.957
		c0-1.919-0.744-2.971-1.754-2.971c-1.01,0-1.754,1.051-1.754,2.971C213.964,61.611,214.708,62.662,215.718,62.662 M215.718,56.23
		c2.02,0,3.27,1.541,3.27,3.475c0,1.919-1.249,3.46-3.27,3.46c-2.02,0-3.27-1.54-3.27-3.46
		C212.448,57.772,213.697,56.23,215.718,56.23"/>
	<path clip-path="url(#SVGID_8_)" fill="#FFFFFF" d="M219.758,62.409c0.982-0.028,1.067-0.084,1.095-0.407
		c0.014-0.196,0.056-1.148,0.056-2.214c0-0.868,0-1.751-0.098-2.62h-1.053v-0.588h1.053v-0.393c0-2.606,1.388-3.362,2.581-3.362
		c0.28,0,1.179,0.069,1.179,0.658c0,0.42-0.365,1.135-0.856,1.135c-0.589,0-0.491-1.009-1.108-1.009
		c-0.38,0-0.646,0.434-0.646,1.162c0,0.589,0.098,1.261,0.324,1.808h1.908v0.588h-1.908v0.967c0,2.214,0.028,3.572,0.041,3.754
		c0.043,0.379,0.126,0.42,1.403,0.519v0.588h-3.971V62.409z"/>
	<path clip-path="url(#SVGID_8_)" fill="#FFFFFF" d="M231.517,61.988c0,0.266,0.028,0.337,0.491,0.337h0.575
		c1.333,0,2.288-0.588,2.288-2.047c0-1.456-1.165-2.004-2.484-2.004c-0.813,0-0.869,0.043-0.869,0.225V61.988z M231.517,57.393
		c0,0.168,0.111,0.21,0.617,0.21c1.459,0,2.147-0.658,2.147-1.933c0-1.163-0.491-1.751-2.048-1.751h-0.421
		c-0.266,0-0.295,0.056-0.295,0.196V57.393z M228.275,62.409c1.43-0.099,1.516-0.14,1.557-0.519
		c0.057-0.476,0.057-1.582,0.057-3.726c0-2.145,0-3.251-0.057-3.727c-0.041-0.379-0.126-0.421-1.557-0.519V53.33h4.714
		c1.74,0,3.003,0.448,3.003,2.116c0,2.074-2.133,2.214-2.133,2.397c0,0.153,2.835,0.265,2.835,2.704c0,2.13-2.19,2.452-3.902,2.452
		h-4.518V62.409z"/>
	<path clip-path="url(#SVGID_8_)" fill="#FFFFFF" d="M238.237,57.869c0-0.56-0.084-0.784-0.365-0.784
		c-0.224,0-0.463,0.042-0.701,0.126V56.58c0.687-0.014,1.627-0.07,2.034-0.167h0.463c-0.07,1.4-0.056,3.152-0.056,4.455
		c0,0.77,0.196,1.512,1.263,1.512c0.533,0,1.122-0.434,1.669-1.232v-3.279c0-0.56-0.083-0.784-0.365-0.784
		c-0.224,0-0.463,0.042-0.701,0.126V56.58c0.687-0.014,1.628-0.07,2.034-0.167h0.463c-0.014,0.238-0.056,0.854-0.056,1.429v4.062
		c0,0.197,0.071,0.281,0.31,0.281c0.139,0,0.379-0.057,0.757-0.084v0.672c-0.73-0.014-1.095,0.042-1.656,0.224h-0.533
		c-0.043-0.784-0.084-0.925-0.21-0.925c-0.182,0-1.011,1.093-2.302,1.093c-1.529,0-2.048-1.134-2.048-2.41V57.869z"/>
	<path clip-path="url(#SVGID_8_)" fill="#FFFFFF" d="M246.291,60.91c0.168,0.883,0.799,1.751,1.81,1.751
		c0.575,0,1.36-0.28,1.36-1.107c0-0.42-0.238-0.756-0.827-1.037l-1.277-0.616c-1.164-0.56-1.501-1.078-1.501-1.653
		c0-1.162,1.122-2.017,2.932-2.017c0.408,0,0.955,0.069,1.403,0.182c0.042,0.574,0.14,1.176,0.28,1.751l-0.519,0.083l-0.224-0.504
		c-0.337-0.714-0.87-0.924-1.431-0.924c-0.941,0-1.291,0.63-1.291,0.924c0,0.337,0.14,0.603,0.87,0.953l1.346,0.658
		c0.969,0.448,1.503,0.897,1.503,1.863c0,0.827-0.744,1.947-2.54,1.947c-0.997,0-1.558-0.308-2.273-0.378
		c-0.015-0.477-0.098-1.261-0.197-1.765L246.291,60.91z"/>
	<path clip-path="url(#SVGID_8_)" fill="#FFFFFF" d="M253.222,52.825c0.491,0,0.827,0.294,0.827,0.91c0,0.616-0.337,0.91-0.827,0.91
		c-0.561,0-0.799-0.434-0.799-0.91C252.423,53.245,252.731,52.825,253.222,52.825 M251.272,62.997v-0.588
		c1.081-0.098,1.164-0.14,1.207-0.519c0.056-0.475,0.056-1.582,0.056-3.138c0-1.569-0.043-1.667-0.31-1.667
		c-0.21,0-0.575,0.028-0.954,0.084V56.58c0.827,0,1.586-0.085,1.992-0.168h0.757c-0.055,0.518-0.111,1.582-0.111,2.858
		c0,1.037,0,2.145,0.056,2.62c0.041,0.379,0.126,0.421,1.122,0.519v0.588H251.272z"/>
	<path clip-path="url(#SVGID_8_)" fill="#FFFFFF" d="M255.579,62.409c0.842,0,1.01-0.112,1.038-0.364
		c0.028-0.211,0.028-0.505,0.028-0.771v-3.657c0-0.504-0.084-0.532-0.379-0.532c-0.224,0-0.477,0.028-0.687,0.084v-0.588H256
		c0.422,0,1.136-0.071,1.53-0.168h0.463v0.588c0,0.21,0.028,0.308,0.126,0.308c0.225,0,0.969-1.078,2.26-1.078
		c1.346,0,1.95,0.77,1.95,1.82v3.223c0,0.266,0,0.56,0.028,0.771c0.028,0.252,0.196,0.364,1.038,0.364v0.588h-3.424v-0.588
		c0.757,0,0.927-0.112,0.955-0.364c0.028-0.211,0.028-0.505,0.028-0.771v-3.573c-0.225-0.378-0.603-0.602-1.067-0.602
		c-0.687,0-1.375,0.518-1.866,1.289v2.886c0,0.266,0,0.56,0.028,0.771c0.028,0.252,0.196,0.364,0.955,0.364v0.588h-3.424V62.409z"/>
	<path clip-path="url(#SVGID_8_)" fill="#FFFFFF" d="M269.105,58.934c0-1.051-0.533-2.117-1.726-2.117
		c-1.15,0-1.95,1.037-1.95,2.117H269.105z M270.564,61.708c-1.095,1.065-2.217,1.457-3.396,1.457c-1.754,0-3.255-1.177-3.255-3.181
		c0-2.144,1.473-3.755,3.437-3.755c1.361,0,3.129,0.939,3.129,3.209v0.168h-5.052v0.168c0,1.415,0.659,2.438,2.204,2.438
		c0.813,0,1.529-0.224,2.525-0.994L270.564,61.708z"/>
	<path clip-path="url(#SVGID_8_)" fill="#FFFFFF" d="M272.009,60.91c0.168,0.883,0.799,1.751,1.81,1.751
		c0.575,0,1.36-0.28,1.36-1.107c0-0.42-0.238-0.756-0.827-1.037l-1.277-0.616c-1.164-0.56-1.501-1.078-1.501-1.653
		c0-1.162,1.122-2.017,2.932-2.017c0.407,0,0.955,0.069,1.403,0.182c0.042,0.574,0.14,1.176,0.28,1.751l-0.519,0.083l-0.224-0.504
		c-0.337-0.714-0.87-0.924-1.431-0.924c-0.941,0-1.291,0.63-1.291,0.924c0,0.337,0.14,0.603,0.87,0.953l1.346,0.658
		c0.969,0.448,1.503,0.897,1.503,1.863c0,0.827-0.744,1.947-2.54,1.947c-0.996,0-1.558-0.308-2.273-0.378
		c-0.015-0.477-0.099-1.261-0.197-1.765L272.009,60.91z"/>
	<path clip-path="url(#SVGID_8_)" fill="#FFFFFF" d="M277.888,60.91c0.168,0.883,0.799,1.751,1.81,1.751
		c0.575,0,1.36-0.28,1.36-1.107c0-0.42-0.238-0.756-0.827-1.037l-1.277-0.616c-1.164-0.56-1.501-1.078-1.501-1.653
		c0-1.162,1.122-2.017,2.932-2.017c0.407,0,0.955,0.069,1.403,0.182c0.042,0.574,0.14,1.176,0.28,1.751l-0.519,0.083l-0.224-0.504
		c-0.337-0.714-0.87-0.924-1.431-0.924c-0.941,0-1.291,0.63-1.291,0.924c0,0.337,0.14,0.603,0.87,0.953l1.346,0.658
		c0.969,0.448,1.502,0.897,1.502,1.863c0,0.827-0.743,1.947-2.539,1.947c-0.997,0-1.558-0.308-2.273-0.378
		c-0.015-0.477-0.099-1.261-0.197-1.765L277.888,60.91z"/>
	<path clip-path="url(#SVGID_8_)" fill="#FFFFFF" d="M87.554,9.265c-0.65,0.331-0.803,0.598-0.803,1.413l-0.013,3.374v0.089
		c0,1.769,0.166,2.305,0.816,2.789c0.396,0.293,0.982,0.445,1.683,0.445c1.186,0,1.951-0.496,2.143-1.413
		c0.076-0.356,0.114-0.789,0.114-1.298v-0.178l-0.012-2.98v-0.089c0-1.235-0.217-1.718-1.008-2.139h2.78
		c-0.854,0.496-1.058,0.941-1.097,2.381l-0.076,3.54c-0.051,1.947-1.034,2.775-3.29,2.775c-2.563,0-3.94-0.916-3.94-2.623v-0.165
		l-0.064-4.494c-0.013-0.879-0.115-1.12-0.612-1.426H87.554z"/>
	<path clip-path="url(#SVGID_8_)" fill="#FFFFFF" d="M96.315,15.95c0-0.344,0.013-0.586,0.025-0.726v-0.089l0.014-4.799
		c-0.255-0.471-0.625-0.777-1.225-1.019l2.781-0.013l5.482,6.316l0.025-3.858v-0.089c0-1.515-0.229-2.012-1.046-2.33h2.614
		c-0.294,0.102-0.612,0.509-0.752,0.954c-0.102,0.331-0.204,1.095-0.23,1.731l-0.089,1.858v0.065v0.228
		c-0.012,0.089-0.012,0.153-0.012,0.204v0.102l-0.077,3.399l-1.007,0.013l-0.038-0.051c-0.166-0.203-1.059-1.285-2.678-3.247
		c-1.479-1.781-2.486-2.966-3.022-3.526l-0.166-0.178v3.679v0.344l0.039,0.814c0.076,1.464,0.152,1.668,0.79,2.013l0.089,0.038
		h-2.499C96.073,17.426,96.29,17.019,96.315,15.95"/>
	<path clip-path="url(#SVGID_8_)" fill="#FFFFFF" d="M107.934,16.268v-0.102v-5.423v-0.051c0-0.814-0.166-1.145-0.688-1.362h3.212
		c-0.497,0.318-0.638,0.7-0.638,1.655v0.076l-0.012,5.194v0.077c0,0.801,0.153,1.183,0.561,1.451h-3.098
		C107.819,17.465,107.934,17.198,107.934,16.268"/>
	<path clip-path="url(#SVGID_8_)" fill="#FFFFFF" d="M116.261,17.808l-0.599-1.438l-0.561-1.375l-0.039-0.102l-1.848-4.252
		c-0.32-0.738-0.574-1.12-0.944-1.362l3.481-0.013c-0.497,0.306-0.65,0.484-0.65,0.789c0,0.127,0.063,0.357,0.153,0.586l0.037,0.076
		l0.638,1.617c0,0.038,0.013,0.038,0.025,0.064c0.064,0.114,0.153,0.331,0.281,0.648c0.063,0.166,0.152,0.395,0.267,0.675
		c0.013,0.064,0.025,0.064,0.038,0.089l1.084,2.47l1.81-4.15c0.32-0.751,0.612-1.68,0.612-1.973c0-0.318-0.229-0.636-0.65-0.878
		h2.499c-0.472,0.305-0.919,0.878-1.275,1.591l-0.561,1.12l-0.064,0.153l-1.556,3.399l-0.05,0.09l-0.434,1.081l-0.434,1.07
		l-0.038,0.114h-1.186L116.261,17.808z"/>
	<path clip-path="url(#SVGID_8_)" fill="#FFFFFF" d="M123.632,15.809l0.025-0.547v-0.344v-3.909v-0.076l-0.025-0.42
		c-0.038-0.611-0.319-1.044-0.777-1.197h0.152l2.946,0.051l3.034-0.063l0.102-0.013l0.153,1.795l-0.064,0.013
		c-0.46-0.955-1.275-1.388-2.639-1.388h-1.02l-0.051,3.425h0.867h0.025c1.186,0,1.823-0.331,1.988-1.044h0.09v2.521h-0.077
		c-0.178-0.725-0.815-1.12-1.836-1.12l-0.127,0.013h-0.931v2.534v0.115l0.038,0.649c0.025,0.458,0.242,0.611,0.879,0.611
		c1.275,0,2.002-0.229,2.691-0.828c0.267-0.229,0.357-0.343,0.549-0.649l0.089,0.013l-0.536,1.833h-6.324
		C123.53,17.528,123.568,17.427,123.632,15.809"/>
	<path clip-path="url(#SVGID_8_)" fill="#FFFFFF" d="M134.956,13.556h0.026c1.339,0,2.104-0.713,2.104-1.948
		c0-1.133-0.739-1.909-1.823-1.909c-0.038,0-0.089,0-0.127,0.013h-0.102l-0.739,0.025l0.012,3.782L134.956,13.556z M132.42,16.37
		l0.012-1.668v-0.152v-0.573v-0.522v-0.115l-0.037-2.687c-0.014-0.712-0.23-1.157-0.651-1.323h0.79h0.077
		c0.101,0.012,0.37,0,0.777-0.026c0.051,0,0.357,0,0.906-0.012l1.186-0.039c1.848,0,2.69,0.306,3.174,1.121
		c0.191,0.318,0.294,0.687,0.294,1.069c0,1.158-0.79,1.986-2.067,2.177l1.646,1.871l0.063,0.077
		c0.039,0.051,0.293,0.331,0.765,0.827c0.383,0.408,0.637,0.675,0.778,0.79c0.088,0.076,0.331,0.254,0.7,0.521l0.065,0.038
		c-0.217,0.039-0.268,0.051-0.651,0.064l-0.523,0.013h-0.14c-1.007,0-1.708-0.369-2.384-1.273c-0.026-0.064-0.051-0.064-0.064-0.076
		l-2.232-2.56h-0.599l0.039,2.432v0.09c0.012,0.674,0.139,0.941,0.586,1.285l0.089,0.064h-3.34
		C132.177,17.592,132.42,17.133,132.42,16.37"/>
	<path clip-path="url(#SVGID_8_)" fill="#FFFFFF" d="M141.703,15.198h0.128c0.51,1.502,1.657,2.419,3.059,2.419
		c1.046,0,1.836-0.662,1.836-1.553c0-0.814-0.523-1.272-2.181-1.896c-1.606-0.598-2.192-0.993-2.536-1.68
		c-0.128-0.268-0.191-0.573-0.191-0.904c0-1.477,1.275-2.56,3.009-2.56c0.65,0,1.224,0.128,2.066,0.446
		c0.242,0.089,0.319,0.102,0.408,0.102c0.191,0,0.307-0.076,0.523-0.344l0.102,2.152h-0.14c-0.371-1.043-1.582-1.909-2.704-1.909
		c-0.879,0-1.465,0.56-1.465,1.375c0,0.852,0.408,1.209,1.988,1.743c1.48,0.497,2.206,0.968,2.626,1.668
		c0.191,0.343,0.294,0.738,0.294,1.145c0,1.566-1.44,2.662-3.456,2.662c-1.198,0-2.791-0.522-3.327-1.095L141.703,15.198z"/>
	<path clip-path="url(#SVGID_8_)" fill="#FFFFFF" d="M151.434,16.268v-0.102v-5.423v-0.051c0-0.814-0.166-1.145-0.688-1.362h3.212
		c-0.497,0.318-0.638,0.7-0.638,1.655v0.076l-0.013,5.194v0.077c0,0.801,0.154,1.183,0.562,1.451h-3.098
		C151.319,17.465,151.434,17.198,151.434,16.268"/>
	<path clip-path="url(#SVGID_8_)" fill="#FFFFFF" d="M158.856,16.14v-0.178l0.012-6.176h-0.14c-0.752,0-1.288,0.153-1.873,0.561
		c-0.435,0.292-0.562,0.42-0.804,0.814l-0.14-0.038l0.6-1.973c0.472,0.165,0.624,0.178,2.257,0.178h1.427
		c1.951,0,3.404-0.051,3.876-0.114l0.14,0.178l-0.739,1.706l-0.165-0.052c0.026-0.063,0.026-0.089,0.026-0.152
		c0-0.815-0.447-1.159-1.48-1.159h-0.039l-0.994,0.026l0.038,6.303c0,1.107,0.178,1.463,0.841,1.718h-3.672
		C158.652,17.58,158.856,17.185,158.856,16.14"/>
	<path clip-path="url(#SVGID_8_)" fill="#FFFFFF" d="M168.343,17.706c0.6-0.344,0.676-0.496,0.676-1.362v-2.089l-2.486-3.755
		c-0.459-0.688-0.777-1.057-1.11-1.235l3.723-0.013l-0.127,0.064l-0.204,0.089c-0.089,0.038-0.165,0.115-0.241,0.216
		c-0.076,0.102-0.115,0.216-0.115,0.319c0,0.127,0.14,0.42,0.357,0.776l1.823,2.84l1.11-1.77l0.051-0.076
		c0.332-0.547,0.586-1.184,0.586-1.541c0-0.343-0.203-0.598-0.675-0.852h2.856c-0.37,0.254-0.675,0.56-1.122,1.107
		c-0.23,0.293-0.6,0.802-1.123,1.54c-0.025,0.064-0.037,0.064-0.05,0.089l-1.351,2.076v1.782v0.102c0,1.082,0.178,1.54,0.675,1.769
		h-3.379C168.267,17.757,168.305,17.731,168.343,17.706"/>
	<path clip-path="url(#SVGID_8_)" fill="#FFFFFF" d="M187.905,13.531c0-2.293-1.237-3.998-2.894-3.998
		c-1.671,0-2.883,1.756-2.883,4.176c0,2.279,1.123,3.844,2.768,3.844C186.604,17.553,187.905,15.81,187.905,13.531 M179.886,13.556
		c0-2.611,2.13-4.507,5.049-4.507c2.933,0,5.012,1.846,5.012,4.443c0,2.661-2.156,4.52-5.19,4.52
		C181.964,18.012,179.886,16.115,179.886,13.556"/>
	<path clip-path="url(#SVGID_8_)" fill="#FFFFFF" d="M192.855,16.383c0.012-0.446,0.038-1.006,0.051-1.668v-0.14l-0.013-2.673
		v-0.103v-0.19c0-1.528-0.216-2.178-0.791-2.293l5.917-0.05l0.102,1.871h-0.102c-0.23-0.955-0.97-1.515-2.052-1.515l-0.14,0.013
		l-1.084,0.012l0.013,3.515h1.045c0.995,0,1.288-0.179,1.747-1.006c0-0.051,0.013-0.038,0.038-0.076h0.102l-0.026,2.597
		l-0.114,0.013c-0.204-0.79-0.778-1.184-1.735-1.184h-0.037l-1.02,0.013V16v0.089c0,1.056,0.203,1.578,0.687,1.693h-3.225
		C192.664,17.592,192.83,17.21,192.855,16.383"/>
	<path clip-path="url(#SVGID_8_)" fill="#FFFFFF" d="M227.688,43.299c5.939,0,10.252-4.01,10.252-9.536
		c0-5.387-4.097-9.285-9.735-9.313c-5.942,0-10.416,4.089-10.416,9.505C217.79,39.315,222.048,43.299,227.688,43.299
		 M227.986,42.458c-3.578,0-6.1-3.522-6.1-8.561c0-5.034,2.465-8.501,6.076-8.501c3.602,0,6.288,3.628,6.288,8.529
		C234.249,38.909,231.647,42.458,227.986,42.458"/>
	<path clip-path="url(#SVGID_8_)" fill="#FFFFFF" d="M237.953,42.928h0.326c1.438-0.079,3.81-0.134,6.524-0.134
		c1.923,0,3.659,0.055,5.068,0.134h0.11l1.033-4.712l-0.191-0.024l-0.082,0.134c-1.33,2.788-2.657,3.683-5.476,3.683
		c-2.033,0-2.414-0.216-2.414-1.432l-0.019-12.568c0-1.487,0.626-2.543,1.793-3.086h-6.86c1.381,0.569,1.787,1.328,1.815,3.359
		l0.053,6.067c0,0-0.024,6.359-0.024,6.469C239.608,41.681,239.013,42.442,237.953,42.928"/>
	<path clip-path="url(#SVGID_8_)" fill="#FFFFFF" d="M250.911,42.928h6.067c-1.165-0.565-1.571-1.296-1.571-2.706l0.027-12.157
		c0-1.843,0.244-2.385,1.491-3.143h-5.957c1.108,0.787,1.328,1.165,1.328,2.574v0.541l-0.057,12.213
		C252.214,41.683,251.942,42.253,250.911,42.928"/>
	<path clip-path="url(#SVGID_8_)" fill="#FFFFFF" d="M107.375,42.425c-3.579,0.011-6.112-3.503-6.128-8.541
		c-0.014-5.037,2.445-8.508,6.051-8.518c3.606-0.012,6.302,3.607,6.316,8.51C113.63,38.86,111.036,42.415,107.375,42.425
		 M107.538,24.416c-5.937,0.016-10.402,4.12-10.385,9.537c0.002,0.489,0.038,0.965,0.107,1.428c-0.804-1.432-2.548-2.49-5.745-3.646
		l-1.123-0.415c-2.24-0.805-3.168-1.781-3.172-3.318c-0.004-1.702,1.418-3.05,3.21-3.056c1.736-0.004,3.67,0.966,4.74,2.334
		c0.477,0.614,0.619,0.891,0.958,1.786l0.42-0.057l-0.294-4.334l-0.309-0.028c-0.221,0.366-0.42,0.478-0.867,0.48
		c-0.25,0-0.42-0.029-0.867-0.252c-1.29-0.552-2.749-0.883-4.147-0.879c-3.612,0.012-6.152,2.059-6.144,4.94
		c0.008,2.683,1.605,4.272,6.12,6.022c0.843,0.33,1.318,0.499,1.488,0.582c1.988,0.803,3.113,2.114,3.117,3.705
		c0.008,2.045-1.724,3.561-4.02,3.567c-2.857,0.01-5.355-1.972-6.541-5.152l-0.393,0.086l0.126,3.827
		c0.308,0.252,0.42,0.336,0.954,0.614c2.215,1.168,3.559,1.526,5.772,1.52c1.288-0.004,2.463-0.206,3.47-0.543
		c2.209-0.814,3.827-3.085,3.82-5.349c0-0.132-0.006-0.258-0.014-0.386c1.409,3.514,4.928,5.849,9.258,5.836
		c5.941-0.018,10.24-4.038,10.224-9.56C117.285,28.314,113.179,24.428,107.538,24.416"/>
	<path clip-path="url(#SVGID_8_)" fill="#FFFFFF" d="M163.976,33.665l0.035-4.411l0.101-2.14c0.027-0.895,0.512-1.565,1.486-2.192
		h-6.375c0.947,0.645,1.253,1.361,1.259,3.068v0.055l-0.063,5.678h-8.452l-0.032-4.083v-0.135c-0.01-2.95,0.26-3.633,1.801-4.528
		l0.11-0.055l-6.838-0.035L135.215,24.9l-5.184,0.023c1.141,0.51,1.663,1.588,1.671,3.863l-0.193,8.313
		c-0.022,1.056-0.102,1.652-0.291,2.304c-0.481,1.654-2.188,2.66-4.548,2.668c-1.87,0.004-3.582-0.694-4.262-1.721
		c-0.599-0.891-0.847-1.945-0.825-3.843l-0.022-7.96l0.041-1.181c0.077-1.355,0.48-1.951,1.703-2.442h-6.67
		c1.004,0.295,1.389,0.925,1.421,2.415l0.033,10.588c0.006,1.87,0.526,3.063,1.748,3.895c1.438,1.025,3.395,1.48,6.025,1.47
		c4.773-0.012,7.125-2.08,7.141-6.358l0.183-6.511c-0.01-3.052,1.108-4.596,4.643-4.578l1.245-0.032l0.094,13.427
		c-0.021,2.249-0.369,3.201-1.426,3.689h6.781c-1.354-0.48-1.793-1.314-1.801-3.536L142.624,25.8l2.397-0.019
		c3.312,0.002,3.44,1.54,3.45,4.738l-0.008,4.956v0.135l-0.047,1.895v0.218l-0.102,2.139c-0.05,1.434-0.426,2.33-1.212,2.93
		l-0.215,0.136h6.434c-1.005-0.594-1.34-1.208-1.344-2.588l-0.009-5.507h8.427l-0.069,4.506c0.008,1.949-0.44,2.908-1.606,3.589
		h6.851c-1.119-0.539-1.629-1.432-1.635-2.95l0.035-5.206L163.976,33.665z"/>
	<path clip-path="url(#SVGID_8_)" fill="#FFFFFF" d="M280.185,33.724l2.563-5.982l2.461,5.982H280.185z M286.863,42.928H294
		c-0.911-0.289-1.532-0.989-2.339-2.674c0,0-2.426-5.381-2.607-5.792c-0.384-0.826-0.359-0.789-4.088-9.965
		c-0.389,0.183-1.868,0.37-1.972,0.37c0,0-0.609,1.448-0.972,2.25c-0.57,1.298-3.017,6.607-3.017,6.607l-2.662,5.95
		c-0.399,0.825-0.798,1.488-1.275,2.065l-0.061-2.407l0.026-3.819l0.08-2.304l0.191-4.766c0.083-1.894,0.406-2.652,1.547-3.522
		h-4.338c1.03,0.488,1.492,1.79,1.492,4.28l0.027,1.87l-0.189,7.068l-10.96-13.218l-5.259,0.002c1.003,0.569,1.654,1.055,2.251,1.68
		l-0.028,12.59c0,2.165-0.406,2.95-1.899,3.735h5.45c-1.679-0.513-2.249-1.381-2.249-3.467l-0.025-11.453l12.356,14.92h0.318h1.3
		h4.05c-0.935-0.364-1.506-1.09-1.506-1.896c0-0.647,0.276-2.385,0.666-3.268l1.361-2.932h6.059l2.278,5.707c0,0,0.027,0,0.053,0.13
		c0.13,0.338,0.258,0.751,0.258,0.905C288.317,42.147,287.798,42.615,286.863,42.928"/>
	<path clip-path="url(#SVGID_8_)" fill="#FFFFFF" d="M208.825,33.897c-0.134,0-1.87-0.078-1.87-0.078l-0.027-8.044l1.681-0.053
		c1.088,0.026,1.98,0.189,2.658,0.46c1.222,0.488,2.059,2.004,2.059,3.707C213.326,32.493,211.728,33.897,208.825,33.897
		 M190.624,33.724l2.565-5.982l2.461,5.982H190.624z M219.913,42.397c-0.709-0.568-1.245-1.186-2.111-2.106
		c-0.489-0.541-1.626-1.762-2.199-2.41c-0.051-0.057-0.079-0.057-0.108-0.136l-2.983-3.63c2.739-0.677,4.206-2.303,4.206-4.63
		c0-1.599-0.839-3.06-2.225-3.845c-0.977-0.541-2.498-0.838-4.366-0.838h-0.597l-3.852,0.105l-0.81,0.029l-2.904-0.029
		c1.192,0.623,1.572,1.3,1.572,2.845l-0.025,12.195l0.025,0.273c0,0.691-0.151,1.24-0.471,1.692
		c-0.312-0.405-0.622-0.942-0.964-1.658c0,0-2.429-5.381-2.61-5.792c-0.381-0.826-0.357-0.789-4.087-9.966
		c-0.39,0.184-1.868,0.371-1.97,0.371c0,0-0.609,1.448-0.97,2.25c-0.571,1.298-1.822,4.098-1.822,4.098l-1.2,2.509l-2.247,5.029
		c-0.335,0.647-0.55,0.948-1.141,1.623c-1.5,1.64-3.087,2.418-4.963,2.418c-4.266,0-7.093-3.744-7.093-9.386
		c0-5.301,2.622-8.898,6.429-8.898c2.424,0,4.501,1.497,6.721,4.805l0.059,0.118l0.375-0.033l-0.434-4.431
		c-0.287,0.114-0.463,0.173-0.605,0.143c-0.086,0-0.145,0-0.232-0.057c-1.671-0.863-4.006-1.44-5.97-1.44
		c-6.085,0-10.409,4.203-10.409,10.079c0,5.819,4.266,9.997,10.207,9.997c1.498,0,2.924-0.236,4.394-0.761h5.054
		c-0.936-0.364-1.508-1.09-1.508-1.896c0-0.647,0.276-2.385,0.668-3.268l1.358-2.932h6.062c0,0,2.304,5.707,2.331,5.837
		c0.128,0.338,0.258,0.751,0.258,0.905c0,0.572-0.52,1.04-1.456,1.353h4.448h2.692h4.739c-1.679-0.488-2.197-1.192-2.197-3.17
		l-0.055-5.048l0.813-0.053c0.786,0,0.974,0.082,1.492,0.706l0.895,1.054c0,0,3.224,3.984,3.282,4.118
		c0.893,1.001,1.434,1.599,1.679,1.79c0.897,0.809,2.468,1.806,5.237,1.9c1.473,0.052,1.992-0.129,2.999-0.513
		C221.852,43.48,220.828,43.132,219.913,42.397"/>
</g>
</svg>
